<svg xmlns="http://www.w3.org/2000/svg" version="1.1" xmlns:xlink="http://www.w3.org/1999/xlink" viewBox="0 0 200 200"><rect width="200" height="200" fill="url('#gradient')"></rect><defs><linearGradient id="gradient" gradientTransform="rotate(147 0.5 0.5)"><stop offset="0%" stop-color="#b96b41"></stop><stop offset="100%" stop-color="#6ac73f"></stop></linearGradient></defs><g><g fill="#0d1c40" transform="matrix(1.400015536394003,0,0,1.400015536394003,10.496342430699627,110.36245856672181)" stroke="#c8512e" stroke-width="0.75"><path d="M4.50-14.22L4.50-2.64L10.47-2.64L10.47 0L1.07 0L1.07-14.22L4.50-14.22ZM15.23-10.57L15.23 0L11.93 0L11.93-10.57L15.23-10.57ZM11.74-13.29L11.74-13.29Q11.74-13.99 12.25-14.44Q12.75-14.89 13.56-14.89Q14.38-14.89 14.88-14.44Q15.39-13.99 15.39-13.29Q15.39-12.59 14.88-12.14Q14.38-11.69 13.56-11.69Q12.75-11.69 12.25-12.14Q11.74-12.59 11.74-13.29ZM19.83-10.57L21.47-3.92L23.14-10.57L26.61-10.57L23.16 0L19.80 0L16.36-10.57L19.83-10.57ZM32.58 0.20L32.58 0.20Q30.15 0.20 28.64-1.25Q27.14-2.71 27.14-5.03L27.14-5.03L27.14-5.30Q27.14-6.92 27.74-8.16Q28.34-9.40 29.49-10.08Q30.64-10.76 32.23-10.76L32.23-10.76Q34.45-10.76 35.74-9.38Q37.03-8.00 37.03-5.53L37.03-5.53L37.03-4.25L30.49-4.25Q30.66-3.36 31.26-2.85Q31.86-2.34 32.80-2.34L32.80-2.34Q34.37-2.34 35.24-3.44L35.24-3.44L36.75-1.66Q36.13-0.81 35.00-0.31Q33.88 0.20 32.58 0.20ZM32.21-8.22L32.21-8.22Q30.76-8.22 30.49-6.31L30.49-6.31L33.81-6.31L33.81-6.56Q33.83-7.35 33.41-7.79Q32.99-8.22 32.21-8.22ZM51.58-4.81L54.99-4.81Q54.92-3.33 54.19-2.19Q53.46-1.05 52.13-0.43Q50.81 0.20 49.11 0.20L49.11 0.20Q46.31 0.20 44.70-1.63Q43.09-3.46 43.09-6.79L43.09-6.79L43.09-7.49Q43.09-9.58 43.81-11.15Q44.54-12.71 45.91-13.57Q47.28-14.42 49.07-14.42L49.07-14.42Q51.66-14.42 53.23-13.06Q54.80-11.70 55.02-9.31L55.02-9.31L51.60-9.31Q51.56-10.61 50.95-11.17Q50.33-11.74 49.07-11.74L49.07-11.74Q47.79-11.74 47.20-10.78Q46.60-9.82 46.57-7.72L46.57-7.72L46.57-6.72Q46.57-4.44 47.14-3.47Q47.71-2.49 49.11-2.49L49.11-2.49Q50.29-2.49 50.92-3.05Q51.54-3.60 51.58-4.81L51.58-4.81ZM65.70 0L62.41 0Q62.24-0.32 62.10-0.95L62.10-0.95Q61.19 0.20 59.56 0.20L59.56 0.20Q58.07 0.20 57.02-0.71Q55.98-1.61 55.98-2.98L55.98-2.98Q55.98-4.70 57.25-5.58Q58.52-6.46 60.94-6.46L60.94-6.46L61.95-6.46L61.95-7.01Q61.95-8.47 60.69-8.47L60.69-8.47Q59.52-8.47 59.52-7.31L59.52-7.31L56.23-7.31Q56.23-8.85 57.53-9.80Q58.84-10.76 60.86-10.76Q62.88-10.76 64.05-9.78Q65.22-8.79 65.25-7.07L65.25-7.07L65.25-2.39Q65.27-0.94 65.70-0.17L65.70-0.17L65.70 0ZM60.35-2.15L60.35-2.15Q60.97-2.15 61.37-2.41Q61.78-2.68 61.95-3.01L61.95-3.01L61.95-4.70L61.00-4.70Q59.28-4.70 59.28-3.15L59.28-3.15Q59.28-2.71 59.58-2.43Q59.88-2.15 60.35-2.15ZM70.55-15L70.55 0L67.25 0L67.25-15L70.55-15ZM77.04-2.34L77.04-2.34Q77.73-2.34 78.12-2.72Q78.50-3.10 78.49-3.77L78.49-3.77L81.57-3.77Q81.57-2.03 80.33-0.92Q79.08 0.20 77.12 0.20L77.12 0.20Q74.81 0.20 73.49-1.25Q72.16-2.70 72.16-5.25L72.16-5.25L72.16-5.39Q72.16-6.99 72.75-8.22Q73.34-9.44 74.45-10.10Q75.57-10.76 77.09-10.76L77.09-10.76Q79.15-10.76 80.36-9.62Q81.57-8.48 81.57-6.52L81.57-6.52L78.49-6.52Q78.49-7.34 78.09-7.78Q77.69-8.22 77.01-8.22L77.01-8.22Q75.73-8.22 75.52-6.59L75.52-6.59Q75.45-6.07 75.45-5.17L75.45-5.17Q75.45-3.57 75.83-2.96Q76.21-2.34 77.04-2.34ZM89.36 0L89.26-1.14Q88.21 0.20 86.44 0.20L86.44 0.20Q84.70 0.20 83.80-0.82Q82.91-1.83 82.91-3.72L82.91-3.72L82.91-10.57L86.20-10.57L86.20-3.70Q86.20-2.34 87.52-2.34L87.52-2.34Q88.65-2.34 89.13-3.15L89.13-3.15L89.13-10.57L92.44-10.57L92.44 0L89.36 0ZM97.71-15L97.71 0L94.41 0L94.41-15L97.71-15ZM108.98 0L105.69 0Q105.52-0.32 105.38-0.95L105.38-0.95Q104.47 0.20 102.84 0.20L102.84 0.20Q101.35 0.20 100.30-0.71Q99.26-1.61 99.26-2.98L99.26-2.98Q99.26-4.70 100.53-5.58Q101.80-6.46 104.22-6.46L104.22-6.46L105.23-6.46L105.23-7.01Q105.23-8.47 103.97-8.47L103.97-8.47Q102.80-8.47 102.80-7.31L102.80-7.31L99.51-7.31Q99.51-8.85 100.82-9.80Q102.12-10.76 104.14-10.76Q106.16-10.76 107.33-9.78Q108.51-8.79 108.54-7.07L108.54-7.07L108.54-2.39Q108.55-0.94 108.98-0.17L108.98-0.17L108.98 0ZM103.63-2.15L103.63-2.15Q104.25-2.15 104.65-2.41Q105.06-2.68 105.23-3.01L105.23-3.01L105.23-4.70L104.28-4.70Q102.56-4.70 102.56-3.15L102.56-3.15Q102.56-2.71 102.86-2.43Q103.16-2.15 103.63-2.15ZM110.90-13.19L114.19-13.19L114.19-10.57L115.93-10.57L115.93-8.28L114.19-8.28L114.19-3.45Q114.19-2.85 114.40-2.62Q114.62-2.38 115.25-2.38L115.25-2.38Q115.74-2.38 116.07-2.44L116.07-2.44L116.07-0.09Q115.19 0.20 114.22 0.20L114.22 0.20Q112.52 0.20 111.71-0.61Q110.90-1.41 110.90-3.04L110.90-3.04L110.90-8.28L109.55-8.28L109.55-10.57L110.90-10.57L110.90-13.19ZM122.33 0.20L122.33 0.20Q119.90 0.20 118.40-1.25Q116.89-2.71 116.89-5.03L116.89-5.03L116.89-5.30Q116.89-6.92 117.50-8.16Q118.10-9.40 119.25-10.08Q120.40-10.76 121.98-10.76L121.98-10.76Q124.21-10.76 125.50-9.38Q126.79-8.00 126.79-5.53L126.79-5.53L126.79-4.25L120.24-4.25Q120.42-3.36 121.02-2.85Q121.61-2.34 122.56-2.34L122.56-2.34Q124.12-2.34 125-3.44L125-3.44L126.50-1.66Q125.89-0.81 124.76-0.31Q123.63 0.20 122.33 0.20ZM121.96-8.22L121.96-8.22Q120.52-8.22 120.24-6.31L120.24-6.31L123.56-6.31L123.56-6.56Q123.58-7.35 123.16-7.79Q122.74-8.22 121.96-8.22Z"></path></g></g></svg>